<?xml version="1.0" encoding="utf-8"?>
<!-- Generator: Adobe Illustrator 22.1.0, SVG Export Plug-In . SVG Version: 6.00 Build 0)  -->
<svg version="1.1" id="Livello_1" xmlns="http://www.w3.org/2000/svg" xmlns:xlink="http://www.w3.org/1999/xlink" x="0px" y="0px"
	 viewBox="0 0 289 56" style="enable-background:new 0 0 289 56;" xml:space="preserve">
<style type="text/css">
	.st0{fill:#706F6F;}
	.st1{fill:#F18423;}
	.st2{fill:#2270AD;}
</style>
<path class="st0" d="M125.5,46.1h1.6c1.5,0,2.1,1,1.8,2.4c-0.3,1.3-1.2,1.9-2.5,1.9h-1l-0.7,3.3h-0.8L125.5,46.1z M125.6,49.7h0.9
	c0.9,0,1.5-0.4,1.7-1.3c0.2-0.9-0.1-1.6-1.1-1.6h-0.9L125.6,49.7z"/>
<path class="st0" d="M134,50.2c-0.4,2.1-1.2,3.6-2.8,3.6c-1.9,0-2-2.1-1.5-4.2c0.4-1.8,1.2-3.6,2.8-3.6C134.3,46,134.4,48,134,50.2z
	 M130.5,49.8c-0.4,1.8-0.4,3.4,0.8,3.4c1,0,1.5-1.1,1.9-3c0.4-1.7,0.5-3.4-0.8-3.4C131.4,46.7,130.8,48.2,130.5,49.8z"/>
<path class="st0" d="M135.3,53.7l0.2-7.6h0.8c-0.1,2.6-0.2,5.4-0.3,6.6h0c0.3-1,1.8-4.7,2.6-6.6h0.8c0,1.8-0.1,5.5-0.2,6.6h0
	c0.4-1.2,1.9-4.8,2.6-6.6h0.8l-3.2,7.6h-0.9c0-1.5,0.1-5.1,0.1-6.4l0,0c-0.3,1.1-1.8,4.6-2.5,6.4H135.3z"/>
<path class="st0" d="M146.1,50.1h-2.5l-0.6,3h2.9l-0.3,0.7H142l1.6-7.6h3.4l-0.2,0.7h-2.6l-0.5,2.5h2.5L146.1,50.1z"/>
<path class="st0" d="M148.3,50.2l-0.8,3.6h-0.8l1.6-7.6h1.8c1.4,0,2,0.9,1.7,2.2c-0.2,1.1-1,1.4-1.4,1.6c0.6,0.3,0.8,0.9,0.6,2
	c-0.2,0.8-0.3,1.4-0.3,1.9h-0.8c0-0.2,0-0.4,0.3-2c0.2-1.1,0-1.5-1-1.5H148.3z M148.4,49.5h0.9c0.9,0,1.5-0.3,1.7-1.2
	c0.2-0.8-0.1-1.4-1.1-1.4H149L148.4,49.5z"/>
<path class="st0" d="M156.5,46.1l-1.1,5.3c-0.2,0.9-0.1,1.7,1,1.7c1,0,1.3-0.8,1.5-1.7l1.1-5.3h0.8l-1.1,5.3
	c-0.3,1.4-0.7,2.4-2.4,2.4c-1.5,0-2-1-1.7-2.4l1.1-5.4H156.5z"/>
<path class="st0" d="M161.4,46.1h1.6c1.5,0,2.1,1,1.8,2.4c-0.3,1.3-1.2,1.9-2.5,1.9h-1l-0.7,3.3h-0.8L161.4,46.1z M161.4,49.7h0.9
	c0.9,0,1.5-0.4,1.7-1.3c0.2-0.9-0.1-1.6-1.1-1.6H162L161.4,49.7z"/>
<path class="st0" d="M168.2,53.7l0.6-3c0-0.1,0-0.1,0-0.2l-1-4.5h0.8c0.3,1.2,0.7,3.3,0.7,3.8c0.5-0.8,1.6-2.6,2.3-3.8h0.9l-2.9,4.6
	c0,0-0.1,0.1-0.1,0.2l-0.6,2.9H168.2z"/>
<path class="st0" d="M176.7,50.2c-0.4,2.1-1.2,3.6-2.8,3.6c-1.9,0-2-2.1-1.5-4.2c0.4-1.8,1.2-3.6,2.8-3.6
	C177.1,46,177.2,48,176.7,50.2z M173.2,49.8c-0.4,1.8-0.4,3.4,0.8,3.4c1,0,1.5-1.1,1.9-3c0.4-1.7,0.5-3.4-0.8-3.4
	C174.1,46.7,173.5,48.2,173.2,49.8z"/>
<path class="st0" d="M179.7,46.1l-1.1,5.3c-0.2,0.9-0.1,1.7,1,1.7c1,0,1.3-0.8,1.5-1.7l1.1-5.3h0.8l-1.1,5.3
	c-0.3,1.4-0.7,2.4-2.4,2.4c-1.5,0-2-1-1.7-2.4l1.1-5.4H179.7z"/>
<path class="st0" d="M184.4,50.2l-0.8,3.6h-0.8l1.6-7.6h1.8c1.4,0,2,0.9,1.7,2.2c-0.2,1.1-1,1.4-1.4,1.6c0.6,0.3,0.8,0.9,0.6,2
	c-0.2,0.8-0.3,1.4-0.3,1.9h-0.8c0-0.2,0-0.4,0.3-2c0.2-1.1,0-1.5-1-1.5H184.4z M184.6,49.5h0.9c0.9,0,1.5-0.3,1.7-1.2
	c0.2-0.8-0.1-1.4-1.1-1.4h-0.9L184.6,49.5z"/>
<path class="st0" d="M192,46.1h1.6c1.4,0,1.9,0.9,1.7,2.2c-0.2,0.9-0.8,1.3-1.3,1.5c0.7,0.3,1.1,1,0.9,2.1c-0.2,1.1-0.9,1.9-2.4,1.9
	h-2.1L192,46.1z M191.3,53.1h1.1c0.8,0,1.5-0.4,1.6-1.4c0.2-1-0.2-1.7-1.3-1.7h-0.8L191.3,53.1z M192.9,49.3c0.9,0,1.4-0.3,1.6-1.1
	c0.1-0.8,0-1.4-1.1-1.4h-0.8l-0.5,2.5H192.9z"/>
<path class="st0" d="M198,46.1l-1.1,5.3c-0.2,0.9-0.1,1.7,1,1.7c1,0,1.3-0.8,1.5-1.7l1.1-5.3h0.8l-1.1,5.3c-0.3,1.4-0.7,2.4-2.4,2.4
	c-1.5,0-2-1-1.7-2.4l1.1-5.4H198z"/>
<path class="st0" d="M202,51.8c0,0.8,0.4,1.4,1.2,1.4c0.6,0,1.1-0.4,1.2-1.1c0.1-0.7-0.1-1.3-1-2c-1.1-0.8-1.5-1.5-1.3-2.5
	c0.2-0.9,0.8-1.5,1.9-1.5c1.6,0,1.9,1.2,1.8,2H205c0-0.6-0.1-1.3-1.1-1.3c-0.6,0-0.9,0.4-1,0.9c-0.1,0.7,0.1,1.1,1,1.8
	c1.3,1,1.5,1.8,1.3,2.8c-0.2,1-0.9,1.6-2.1,1.6c-1.6,0-2-1.1-2-2.1H202z"/>
<path class="st0" d="M208.5,46.1l-1.6,7.6h-0.8l1.6-7.6H208.5z"/>
<path class="st0" d="M208.5,53.7l1.6-7.6h1c1,5.1,1.1,6.1,1.1,6.5h0c0.2-1,0.4-2.3,0.7-3.6l0.6-2.9h0.8l-1.6,7.6h-0.9
	c-1-5.4-1.1-6.3-1.2-6.7h0c-0.2,1-0.4,2.4-0.7,3.7l-0.6,3H208.5z"/>
<path class="st0" d="M218.5,50.1H216l-0.6,3h2.9l-0.3,0.7h-3.6l1.6-7.6h3.4l-0.2,0.7h-2.6l-0.5,2.5h2.5L218.5,50.1z"/>
<path class="st0" d="M220,51.8c0,0.8,0.4,1.4,1.2,1.4c0.6,0,1.1-0.4,1.2-1.1c0.1-0.7-0.1-1.3-1-2c-1.1-0.8-1.5-1.5-1.3-2.5
	c0.2-0.9,0.8-1.5,1.9-1.5c1.6,0,1.9,1.2,1.8,2h-0.8c0-0.6-0.1-1.3-1.1-1.3c-0.6,0-0.9,0.4-1,0.9c-0.1,0.7,0.1,1.1,1,1.8
	c1.3,1,1.5,1.8,1.3,2.8c-0.2,1-0.9,1.6-2.1,1.6c-1.6,0-2-1.1-2-2.1H220z"/>
<path class="st0" d="M225,51.8c0,0.8,0.4,1.4,1.2,1.4c0.6,0,1.1-0.4,1.2-1.1c0.1-0.7-0.1-1.3-1-2c-1.1-0.8-1.5-1.5-1.3-2.5
	c0.2-0.9,0.8-1.5,1.9-1.5c1.6,0,1.9,1.2,1.8,2h-0.8c0-0.6-0.1-1.3-1.1-1.3c-0.6,0-0.9,0.4-1,0.9c-0.1,0.7,0.1,1.1,1,1.8
	c1.3,1,1.5,1.8,1.3,2.8c-0.2,1-0.9,1.6-2.1,1.6c-1.6,0-2-1.1-2-2.1H225z"/>
<path class="st1" d="M47.6,40.8h-7v-23L28.1,39.6c-0.3,0.6-0.7,1-1.3,1.3c-0.5,0.3-1.1,0.4-1.8,0.4c-0.6,0-1.2-0.1-1.7-0.4
	c-0.5-0.3-0.9-0.7-1.2-1.3L9.7,17.8v23h-7V5.2c0-0.8,0.2-1.5,0.7-2.2c0.5-0.6,1.1-1,1.9-1.3C5.7,1.7,6,1.7,6.4,1.7
	c0.4,0,0.7,0.1,1.1,0.2s0.7,0.3,1,0.6C8.7,2.8,9,3,9.2,3.4L25.1,31L41,3.4c0.4-0.7,1-1.2,1.7-1.5c0.7-0.3,1.5-0.3,2.3-0.1
	c0.8,0.2,1.4,0.6,1.9,1.3c0.5,0.6,0.7,1.3,0.7,2.2V40.8z"/>
<path class="st1" d="M71.9,11.7v22.1H59.8c-1,0-1.7-0.2-2.2-0.7c-0.5-0.5-0.7-1.2-0.7-2.1V11.7h-7V31c0,1.8,0.3,3.3,1,4.6
	c0.6,1.2,1.5,2.3,2.4,3c1,0.8,2,1.3,3.2,1.7c1.1,0.3,2.2,0.5,3.2,0.5h12.2v2.8c0,0.9-0.2,1.6-0.7,2.1c-0.5,0.5-1.2,0.7-2.1,0.7H56.5
	v7h12.6c0.7,0,1.4-0.1,2.1-0.2c0.7-0.2,1.5-0.4,2.2-0.7c0.7-0.3,1.4-0.7,2.1-1.2c0.7-0.5,1.2-1.1,1.7-1.9c0.5-0.7,0.9-1.6,1.2-2.5
	c0.3-1,0.5-2,0.5-3.2V11.7H71.9z"/>
<path class="st2" d="M279.4,11.7v22.1h-12.2c-1,0-1.7-0.2-2.2-0.7c-0.5-0.5-0.7-1.2-0.7-2.1V11.7h-7V31c0,1.8,0.3,3.3,1,4.6
	c0.6,1.2,1.5,2.3,2.4,3c1,0.8,2,1.3,3.2,1.7c1.1,0.3,2.2,0.5,3.2,0.5h12.2v2.8c0,0.9-0.2,1.6-0.7,2.1c-0.5,0.5-1.2,0.7-2.1,0.7H264
	v7h12.6c0.7,0,1.4-0.1,2.1-0.2c0.7-0.2,1.5-0.4,2.2-0.7c0.7-0.3,1.4-0.7,2.1-1.2c0.7-0.5,1.2-1.1,1.7-1.9c0.5-0.7,0.9-1.6,1.2-2.5
	c0.3-1,0.5-2,0.5-3.2V11.7H279.4z"/>
<g>
	<path class="st2" d="M104.6,14.3h1.4l1.6-1.6v-1.5c-0.3,0.2-0.5,0.5-0.8,0.7C106.1,12.6,105.4,13.4,104.6,14.3z"/>
	<path class="st2" d="M111.5,24.4c0.9-0.8,1.9-1.6,3-2.7c1-0.9,2-2.1,3-3.4c0.6-0.9,1.3-1.9,1.8-2.9l-0.2-0.2h-8.9l-1.6,1.6v8.9
		l0.5,0.5C109.8,25.7,110.6,25.1,111.5,24.4z"/>
	<path class="st2" d="M120.4,42.5l-1.2-1.2h-8.9l-1.6,1.6v4c2-0.5,4-1.3,5.9-2C116.4,44.2,118.3,43.4,120.4,42.5z"/>
	<path class="st2" d="M120.6,7.5c-0.2-0.3-0.4-0.6-0.7-0.8c-0.6-0.4-1.9-0.4-3.3-0.2c-0.3,0.1-0.7,0.1-1,0.2c-0.4,0.1-0.7,0.2-1,0.3
		c-0.6,0.3-1.3,0.5-1.8,0.7c-1.1,0.5-1.9,1-2.5,1.4c-0.6,0.4-0.9,0.6-0.9,0.6s-0.3,0.2-0.8,0.6v2.3l1.6,1.6h8.9l1.2-1.2
		c0.2-0.5,0.3-1,0.5-1.5V7.8C120.7,7.7,120.7,7.6,120.6,7.5z"/>
	<path class="st2" d="M97.1,40.4h8.9l1.6-1.6V36c-3.9,2.1-7.5,3.2-10.9,3.9L97.1,40.4z"/>
	<path class="st2" d="M106,41.2h-8.9l-0.4,0.4c0.1,0.6,0.3,1.1,0.5,1.6c0.5,1.3,1.1,2.2,1.7,2.8c1.2,1.2,2.5,1.5,3.4,1.6
		c1.6,0.2,3.5,0,5.2-0.4v-4.3L106,41.2z"/>
	<path class="st2" d="M106,27.3l1.6-1.6v-8.9l-1.6-1.6h-2.1c-0.8,1-1.6,2.1-2.3,3.4c-1.6,2.6-2.9,5.6-3.9,8.8H106z"/>
	<path class="st2" d="M105.8,28.3c0.1,0,0.1-0.1,0.2-0.1l0,0h-8.6c0,0.1-0.1,0.2-0.1,0.3c-0.4,1.7-0.8,3.3-0.9,4.9
		C99.3,32,102.3,30.4,105.8,28.3z"/>
	<path class="st2" d="M93.6,51.4C92.2,50,91,48.1,90.1,46c-0.6-1.5-1-3.1-1.3-4.8H84l-1.6,1.6v8.9l1.6,1.6h8.9l1.4-1.4
		C94,51.8,93.8,51.6,93.6,51.4z"/>
	<path class="st2" d="M117.3,49.7c-1.7,1.3-3.7,2.6-6,3.6h7.8l1.6-1.6v-5.1C119.7,47.7,118.5,48.8,117.3,49.7z"/>
	<path class="st2" d="M88.5,37.4c-0.1-2.9,0.3-6,1-9.2H84l-1.6,1.6v8.9l1.1,1.1C85.2,39,86.9,38.2,88.5,37.4z"/>
	<path class="st2" d="M118.7,28.2c-0.9,0.8-1.7,1.5-2.4,2.1c-1.1,0.8-2,1.6-2.9,2.1c-0.8,0.6-1.6,1-2.2,1.5c-0.6,0.4-1.2,0.7-1.6,1
		c-0.4,0.2-0.7,0.4-1.1,0.6v3.2l1.6,1.6h8.9l1.6-1.6v-8.9l-1.6-1.6H118.7z"/>
	<path class="st2" d="M101.6,6.4c1-0.9,1.8-1.6,2.5-2.1c0.6-0.5,0.9-0.7,0.9-0.7s0.4-0.3,1.2-0.8c0.1-0.1,0.2-0.1,0.3-0.2L106,2.2
		h-8.9l-1.6,1.6v8.9l0.5,0.5C97.8,10.3,99.9,8,101.6,6.4z"/>
	<polygon class="st2" points="92.9,14.3 94.5,12.7 94.5,3.8 92.9,2.2 84,2.2 82.3,3.8 82.3,12.7 84,14.3 	"/>
	<path class="st2" d="M89.7,27.3c0.1-0.3,0.1-0.5,0.2-0.8c0.9-3.6,2.4-7.1,4.1-10.2l-1.1-1.1H84l-1.6,1.6v8.9l1.6,1.6H89.7z"/>
</g>
<path class="st2" d="M190.3,16.9c-0.6-1.2-1.4-2.2-2.4-3c-1-0.8-2-1.3-3.1-1.7c-1.1-0.3-2.2-0.5-3.1-0.5H169c-1.8,0-3.2,0.3-4.5,1
	c-1.2,0.6-2.2,1.4-3,2.4c-0.8,1-1.3,2-1.7,3.1c-0.3,1.1-0.5,2.2-0.5,3.1v9.8c0,1.8,0.3,3.2,1,4.5c0.6,1.2,1.4,2.2,2.4,3
	c1,0.8,2,1.3,3.1,1.7c1.1,0.3,2.2,0.5,3.1,0.5h18.8v-6.7h-18.8c-0.9,0-1.6-0.3-2.2-0.8c-0.6-0.5-0.9-1.2-0.9-2.2V31h15.6
	c1.8,0,3.2-0.3,4.5-1c1.2-0.6,2.2-1.4,3-2.4c0.8-1,1.3-2,1.7-3.1c0.3-1.1,0.5-2.2,0.5-3.1C191.3,19.6,190.9,18.1,190.3,16.9z
	 M183.8,23.5c-0.5,0.6-1.3,0.9-2.2,0.9H166v-2.9c0-0.9,0.3-1.6,0.8-2.2c0.5-0.6,1.3-0.9,2.2-0.9h12.6c0.8,0,1.5,0.3,2.1,0.8
	c0.6,0.5,0.9,1.2,0.9,2.2C184.6,22.2,184.4,22.9,183.8,23.5z"/>
<path class="st2" d="M219.2,18.7h-15.7c-0.9,0-1.7,0.2-2.2,0.7c-0.5,0.5-0.7,1.2-0.7,2.1v19.3h-7V21.5c0-1.2,0.2-2.3,0.5-3.2
	c0.3-0.9,0.7-1.8,1.2-2.5s1.1-1.3,1.8-1.9c0.7-0.5,1.4-0.9,2.1-1.2s1.5-0.6,2.2-0.7c0.7-0.2,1.4-0.2,2.1-0.2h15.8V18.7z"/>
<path class="st2" d="M253.3,18.3c-0.3-0.9-0.7-1.8-1.2-2.5s-1.1-1.3-1.7-1.9c-0.7-0.5-1.4-0.9-2.1-1.2c-0.7-0.3-1.5-0.6-2.2-0.7
	c-0.7-0.2-1.4-0.2-2.1-0.2h-12.6c-1.2,0-2.3,0.2-3.2,0.5c-0.9,0.3-1.8,0.7-2.5,1.2c-0.7,0.5-1.3,1.1-1.9,1.7
	c-0.5,0.7-0.9,1.4-1.2,2.1s-0.6,1.5-0.7,2.2c-0.2,0.7-0.2,1.4-0.2,2.1V31c0,1.2,0.2,2.3,0.5,3.2c0.3,1,0.7,1.8,1.2,2.5
	c0.5,0.7,1.1,1.3,1.7,1.9c0.7,0.5,1.4,0.9,2.1,1.2c0.7,0.3,1.5,0.6,2.2,0.7c0.7,0.2,1.4,0.2,2.1,0.2h15.4v2.8c0,0.9-0.2,1.6-0.7,2.1
	c-0.5,0.5-1.2,0.7-2.1,0.7h-12.6v7h12.6c0.7,0,1.4-0.1,2.1-0.2c0.7-0.2,1.5-0.4,2.2-0.7c0.7-0.3,1.4-0.7,2.1-1.2
	c0.7-0.5,1.2-1.1,1.7-1.9c0.5-0.7,0.9-1.6,1.2-2.5c0.3-1,0.5-2,0.5-3.2V21.5C253.7,20.3,253.6,19.2,253.3,18.3z M231.4,33.8
	c-0.9,0-1.6-0.2-2.1-0.7c-0.5-0.5-0.7-1.2-0.7-2.1v-9.5c0-0.8,0.3-1.5,0.8-2c0.5-0.5,1.2-0.8,2-0.8h12.6c0.9,0,1.7,0.2,2.1,0.7
	c0.5,0.5,0.7,1.2,0.7,2.1v12.3H231.4z"/>
<path class="st2" d="M157.1,40.8h-7V24.7c0-0.9-0.2-1.7-0.5-2.5c-0.3-0.7-0.7-1.3-1.3-1.9c-0.5-0.5-1.2-0.9-1.9-1.2
	c-0.7-0.3-1.5-0.4-2.4-0.4h-12.2v22.1h-7V15.2c0-0.5,0.1-0.9,0.3-1.4c0.2-0.4,0.4-0.8,0.8-1.1c0.3-0.3,0.7-0.6,1.1-0.7
	c0.4-0.2,0.9-0.3,1.4-0.3h15.8c0.9,0,1.8,0.1,2.8,0.3c1,0.2,1.9,0.5,2.9,1c1,0.4,1.9,1,2.7,1.7c0.9,0.7,1.6,1.5,2.3,2.4
	c0.7,1,1.2,2.1,1.6,3.3c0.4,1.3,0.6,2.7,0.6,4.2V40.8z"/>
</svg>
